<?xml version="1.0" encoding="utf-8"?>
<!-- Generator: Adobe Illustrator 23.0.1, SVG Export Plug-In . SVG Version: 6.00 Build 0)  -->
<svg version="1.1" id="Livello_1" xmlns="http://www.w3.org/2000/svg" xmlns:xlink="http://www.w3.org/1999/xlink" x="0px" y="0px"
	 viewBox="0 0 24 24" style="enable-background:new 0 0 24 24;" xml:space="preserve">
<style type="text/css">
	.st0{fill:none;stroke:#0069FF;stroke-width:1.5;stroke-linecap:round;stroke-linejoin:round;}
</style>
<g>
	<path class="st0" d="M4.5,18H3.7c-0.8,0-1.6-0.3-2.1-0.9C1,16.5,0.7,15.8,0.7,15v-3c0-0.8,0.3-1.6,0.9-2.1C2.2,9.3,2.9,9,3.7,9h0.8
		C4.7,9,4.9,9.1,5,9.2s0.2,0.3,0.2,0.5v7.5c0,0.2-0.1,0.4-0.2,0.5C4.9,17.9,4.7,18,4.5,18z"/>
	<path class="st0" d="M20.3,18h-0.8c-0.2,0-0.4-0.1-0.5-0.2s-0.2-0.3-0.2-0.5V9.8c0-0.2,0.1-0.4,0.2-0.5S19.3,9,19.5,9h0.8
		c0.8,0,1.6,0.3,2.1,0.9c0.6,0.6,0.9,1.3,0.9,2.1v3c0,0.8-0.3,1.6-0.9,2.1C21.8,17.7,21,18,20.3,18z"/>
	<path class="st0" d="M3.8,9c0-2.2,0.9-4.3,2.4-5.8S9.8,0.8,12,0.8l0,0c2.2,0,4.3,0.9,5.8,2.4s2.4,3.6,2.4,5.8"/>
	<path class="st0" d="M15,21.8h2.3c0.8,0,1.6-0.3,2.1-0.9c0.6-0.6,0.9-1.3,0.9-2.1V18"/>
	<path class="st0" d="M13.5,23.3H12c-0.4,0-0.8-0.2-1.1-0.4s-0.4-0.7-0.4-1.1s0.2-0.8,0.4-1.1s0.7-0.4,1.1-0.4h1.5
		c0.4,0,0.8,0.2,1.1,0.4s0.4,0.7,0.4,1.1s-0.2,0.8-0.4,1.1S13.9,23.3,13.5,23.3z"/>
	<path class="st0" d="M9,15.4c0.8,0.7,1.9,1.2,3,1.2s2.2-0.4,3-1.2"/>
	<path class="st0" d="M9,10v1.3"/>
	<path class="st0" d="M15,10v1.3"/>
</g>
</svg>
