<?xml version="1.0" encoding="utf-8"?>
<!-- Generator: Adobe Illustrator 23.0.1, SVG Export Plug-In . SVG Version: 6.00 Build 0)  -->
<svg version="1.1" id="Livello_1" xmlns="http://www.w3.org/2000/svg" xmlns:xlink="http://www.w3.org/1999/xlink" x="0px" y="0px"
	 viewBox="0 0 24 24" style="enable-background:new 0 0 24 24;" xml:space="preserve">
<style type="text/css">
	.st0{clip-path:url(#SVGID_2_);}
	.st1{fill:none;stroke:#0069FF;stroke-width:1.5;stroke-linecap:round;stroke-linejoin:round;}
</style>
<g>
	<g>
		<defs>
			<rect id="SVGID_1_" width="24" height="24"/>
		</defs>
		<clipPath id="SVGID_2_">
			<use xlink:href="#SVGID_1_"  style="overflow:visible;"/>
		</clipPath>
		<g class="st0">
			<path class="st1" d="M22.3,6.8H10.8c-0.6,0-1,0.4-1,1v14.5c0,0.6,0.4,1,1,1h11.5c0.6,0,1-0.4,1-1V7.8C23.3,7.2,22.8,6.8,22.3,6.8
				z"/>
			<path class="st1" d="M9.8,20.3h-3c-0.4,0-0.8-0.2-1.1-0.4c-0.3-0.3-0.4-0.7-0.4-1.1V5.3c0-0.4,0.2-0.8,0.4-1.1
				C6,3.9,6.4,3.8,6.8,3.8h10.5c0.4,0,0.8,0.2,1.1,0.4c0.3,0.3,0.4,0.7,0.4,1.1v1.5"/>
			<path class="st1" d="M5.3,17.3h-3c-0.4,0-0.8-0.2-1.1-0.4c-0.3-0.3-0.4-0.7-0.4-1.1V2.3c0-0.4,0.2-0.8,0.4-1.1
				c0.3-0.3,0.7-0.4,1.1-0.4h10.5c0.4,0,0.8,0.2,1.1,0.4c0.3,0.3,0.4,0.7,0.4,1.1v1.5"/>
			<path class="st1" d="M17.3,11.3h3"/>
			<path class="st1" d="M12.8,10.5l0.8,0.8l1.5-1.5"/>
			<path class="st1" d="M17.3,15.8h3"/>
			<path class="st1" d="M12.8,15l0.8,0.8l1.5-1.5"/>
			<path class="st1" d="M17.3,20.3h3"/>
			<path class="st1" d="M12.8,19.5l0.8,0.8l1.5-1.5"/>
		</g>
	</g>
</g>
</svg>
