<?xml version="1.0" encoding="utf-8"?>
<!-- Generator: Adobe Illustrator 23.0.1, SVG Export Plug-In . SVG Version: 6.00 Build 0)  -->
<svg version="1.1" id="Livello_1" xmlns="http://www.w3.org/2000/svg" xmlns:xlink="http://www.w3.org/1999/xlink" x="0px" y="0px"
	 viewBox="0 0 22.6 24" style="enable-background:new 0 0 22.6 24;" xml:space="preserve">
<style type="text/css">
	.st0{fill:none;stroke:#0069FF;stroke-width:1.5;stroke-linecap:round;stroke-linejoin:round;}
</style>
<path class="st0" d="M6.1,11.1l2.5,3.5c0.1,0.1,0.2,0.3,0.4,0.3C9.1,15,9.3,15,9.5,15s0.3,0,0.5-0.1s0.3-0.2,0.4-0.3l7.8-9.9"/>
<path class="st0" d="M2.3,0.7c-0.4,0-0.8,0.2-1.1,0.4C0.9,1.4,0.8,1.8,0.8,2.2v9C0.8,16,8,21.4,10.5,23c0.2,0.2,0.5,0.2,0.8,0.2
	s0.6-0.1,0.8-0.2c2.5-1.6,9.7-6.9,9.7-11.8v-9c0-0.2,0-0.4-0.1-0.6c-0.1-0.2-0.2-0.3-0.3-0.5c-0.1-0.1-0.3-0.2-0.5-0.3
	s-0.4-0.1-0.6-0.1H2.3z"/>
</svg>
